<?xml version="1.0" standalone="no" ?>
<!DOCTYPE svg PUBLIC "-//W3C//DTD SVG 1.1//EN" "http://www.w3.org/Graphics/SVG/1.1/DTD/svg11.dtd">
<svg width="1017px" height="162px" xmlns="http://www.w3.org/2000/svg" version="1.1" viewBox="0 0 1017 162" >
	<style type="text/css" > <![CDATA[
		@import url("https://www.ncbi.nlm.nih.gov/projects/sviewer/css/svg_fonts.css");
	]]>
	</style>
	<desc >Generated by NCBI Genome Workbench http://www.ncbi.nlm.nih.gov/tools/gbench/</desc>
	<defs >
		<clipPath id="clipping-rect1" >
			<rect x="0" y="0" width="1017" height="18" />
		</clipPath>
		<linearGradient id="gradient1" gradientTransform="rotate(90)" >
			<stop offset="0%" stop-color="#6c6c6c" />
			<stop offset="50%" stop-color="#b5b5b5" />
			<stop offset="100%" stop-color="#6c6c6c" />
		</linearGradient>
		<clipPath id="clipping-rect2" >
			<rect x="0" y="18" width="1017" height="144" />
		</clipPath>
		<linearGradient id="gradient2" gradientTransform="rotate(90)" >
			<stop offset="0%" stop-color="#e6e6e6" stop-opacity="0.71" />
			<stop offset="100%" stop-color="#ffffff" stop-opacity="0.00" />
		</linearGradient>
	</defs>
	<g >
		<polygon fill="#ffffff" shape-rendering="crispEdges" points="1017.00,17.00 1017.00,-1.00 0.00,-1.00 0.00,17.00 " />
		<line x1="0.00" y1="14.88" x2="1017.00" y2="14.88" stroke="#7f7f7f" stroke-width="1.00" clip-path="url('#clipping-rect1')" />
		<line x1="3.54" y1="14.88" x2="3.54" y2="12.76" stroke="#7f7f7f" stroke-width="1.00" clip-path="url('#clipping-rect1')" />
		<line x1="9.41" y1="14.88" x2="9.41" y2="12.76" stroke="#7f7f7f" stroke-width="1.00" clip-path="url('#clipping-rect1')" />
		<line x1="15.27" y1="14.88" x2="15.27" y2="12.76" stroke="#7f7f7f" stroke-width="1.00" clip-path="url('#clipping-rect1')" />
		<line x1="21.14" y1="14.88" x2="21.14" y2="11.71" stroke="#7f7f7f" stroke-width="1.00" clip-path="url('#clipping-rect1')" />
		<line x1="27.01" y1="14.88" x2="27.01" y2="12.76" stroke="#7f7f7f" stroke-width="1.00" clip-path="url('#clipping-rect1')" />
		<line x1="32.88" y1="14.88" x2="32.88" y2="12.76" stroke="#7f7f7f" stroke-width="1.00" clip-path="url('#clipping-rect1')" />
		<line x1="38.75" y1="14.88" x2="38.75" y2="12.76" stroke="#7f7f7f" stroke-width="1.00" clip-path="url('#clipping-rect1')" />
		<line x1="44.62" y1="14.88" x2="44.62" y2="12.76" stroke="#7f7f7f" stroke-width="1.00" clip-path="url('#clipping-rect1')" />
		<line x1="50.49" y1="14.88" x2="50.49" y2="11.71" stroke="#7f7f7f" stroke-width="1.00" clip-path="url('#clipping-rect1')" />
		<line x1="56.36" y1="14.88" x2="56.36" y2="12.76" stroke="#7f7f7f" stroke-width="1.00" clip-path="url('#clipping-rect1')" />
		<line x1="62.23" y1="14.88" x2="62.23" y2="12.76" stroke="#7f7f7f" stroke-width="1.00" clip-path="url('#clipping-rect1')" />
		<line x1="68.10" y1="14.88" x2="68.10" y2="12.76" stroke="#7f7f7f" stroke-width="1.00" clip-path="url('#clipping-rect1')" />
		<line x1="73.97" y1="14.88" x2="73.97" y2="12.76" stroke="#7f7f7f" stroke-width="1.00" clip-path="url('#clipping-rect1')" />
		<line x1="79.83" y1="14.88" x2="79.83" y2="11.71" stroke="#7f7f7f" stroke-width="1.00" clip-path="url('#clipping-rect1')" />
		<line x1="85.70" y1="14.88" x2="85.70" y2="12.76" stroke="#7f7f7f" stroke-width="1.00" clip-path="url('#clipping-rect1')" />
		<line x1="91.57" y1="14.88" x2="91.57" y2="12.76" stroke="#7f7f7f" stroke-width="1.00" clip-path="url('#clipping-rect1')" />
		<line x1="97.44" y1="14.88" x2="97.44" y2="12.76" stroke="#7f7f7f" stroke-width="1.00" clip-path="url('#clipping-rect1')" />
		<line x1="103.31" y1="14.88" x2="103.31" y2="12.76" stroke="#7f7f7f" stroke-width="1.00" clip-path="url('#clipping-rect1')" />
		<line x1="109.18" y1="14.88" x2="109.18" y2="11.71" stroke="#7f7f7f" stroke-width="1.00" clip-path="url('#clipping-rect1')" />
		<line x1="115.05" y1="14.88" x2="115.05" y2="12.76" stroke="#7f7f7f" stroke-width="1.00" clip-path="url('#clipping-rect1')" />
		<line x1="120.92" y1="14.88" x2="120.92" y2="12.76" stroke="#7f7f7f" stroke-width="1.00" clip-path="url('#clipping-rect1')" />
		<line x1="126.79" y1="14.88" x2="126.79" y2="12.76" stroke="#7f7f7f" stroke-width="1.00" clip-path="url('#clipping-rect1')" />
		<line x1="132.66" y1="14.88" x2="132.66" y2="12.76" stroke="#7f7f7f" stroke-width="1.00" clip-path="url('#clipping-rect1')" />
		<line x1="138.53" y1="14.88" x2="138.53" y2="11.71" stroke="#7f7f7f" stroke-width="1.00" clip-path="url('#clipping-rect1')" />
		<line x1="144.39" y1="14.88" x2="144.39" y2="12.76" stroke="#7f7f7f" stroke-width="1.00" clip-path="url('#clipping-rect1')" />
		<line x1="150.26" y1="14.88" x2="150.26" y2="12.76" stroke="#7f7f7f" stroke-width="1.00" clip-path="url('#clipping-rect1')" />
		<line x1="156.13" y1="14.88" x2="156.13" y2="12.76" stroke="#7f7f7f" stroke-width="1.00" clip-path="url('#clipping-rect1')" />
		<line x1="162.00" y1="14.88" x2="162.00" y2="12.76" stroke="#7f7f7f" stroke-width="1.00" clip-path="url('#clipping-rect1')" />
		<line x1="167.87" y1="14.88" x2="167.87" y2="11.71" stroke="#7f7f7f" stroke-width="1.00" clip-path="url('#clipping-rect1')" />
		<line x1="173.74" y1="14.88" x2="173.74" y2="12.76" stroke="#7f7f7f" stroke-width="1.00" clip-path="url('#clipping-rect1')" />
		<line x1="179.61" y1="14.88" x2="179.61" y2="12.76" stroke="#7f7f7f" stroke-width="1.00" clip-path="url('#clipping-rect1')" />
		<line x1="185.48" y1="14.88" x2="185.48" y2="12.76" stroke="#7f7f7f" stroke-width="1.00" clip-path="url('#clipping-rect1')" />
		<line x1="191.35" y1="14.88" x2="191.35" y2="12.76" stroke="#7f7f7f" stroke-width="1.00" clip-path="url('#clipping-rect1')" />
		<line x1="197.22" y1="14.88" x2="197.22" y2="11.71" stroke="#7f7f7f" stroke-width="1.00" clip-path="url('#clipping-rect1')" />
		<line x1="203.09" y1="14.88" x2="203.09" y2="12.76" stroke="#7f7f7f" stroke-width="1.00" clip-path="url('#clipping-rect1')" />
		<line x1="208.96" y1="14.88" x2="208.96" y2="12.76" stroke="#7f7f7f" stroke-width="1.00" clip-path="url('#clipping-rect1')" />
		<line x1="214.82" y1="14.88" x2="214.82" y2="12.76" stroke="#7f7f7f" stroke-width="1.00" clip-path="url('#clipping-rect1')" />
		<line x1="220.69" y1="14.88" x2="220.69" y2="12.76" stroke="#7f7f7f" stroke-width="1.00" clip-path="url('#clipping-rect1')" />
		<line x1="226.56" y1="14.88" x2="226.56" y2="11.71" stroke="#7f7f7f" stroke-width="1.00" clip-path="url('#clipping-rect1')" />
		<line x1="232.43" y1="14.88" x2="232.43" y2="12.76" stroke="#7f7f7f" stroke-width="1.00" clip-path="url('#clipping-rect1')" />
		<line x1="238.30" y1="14.88" x2="238.30" y2="12.76" stroke="#7f7f7f" stroke-width="1.00" clip-path="url('#clipping-rect1')" />
		<line x1="244.17" y1="14.88" x2="244.17" y2="12.76" stroke="#7f7f7f" stroke-width="1.00" clip-path="url('#clipping-rect1')" />
		<line x1="250.04" y1="14.88" x2="250.04" y2="12.76" stroke="#7f7f7f" stroke-width="1.00" clip-path="url('#clipping-rect1')" />
		<line x1="255.91" y1="14.88" x2="255.91" y2="11.71" stroke="#7f7f7f" stroke-width="1.00" clip-path="url('#clipping-rect1')" />
		<line x1="261.78" y1="14.88" x2="261.78" y2="12.76" stroke="#7f7f7f" stroke-width="1.00" clip-path="url('#clipping-rect1')" />
		<line x1="267.65" y1="14.88" x2="267.65" y2="12.76" stroke="#7f7f7f" stroke-width="1.00" clip-path="url('#clipping-rect1')" />
		<line x1="273.52" y1="14.88" x2="273.52" y2="12.76" stroke="#7f7f7f" stroke-width="1.00" clip-path="url('#clipping-rect1')" />
		<line x1="279.38" y1="14.88" x2="279.38" y2="12.76" stroke="#7f7f7f" stroke-width="1.00" clip-path="url('#clipping-rect1')" />
		<line x1="285.25" y1="14.88" x2="285.25" y2="11.71" stroke="#7f7f7f" stroke-width="1.00" clip-path="url('#clipping-rect1')" />
		<line x1="291.12" y1="14.88" x2="291.12" y2="12.76" stroke="#7f7f7f" stroke-width="1.00" clip-path="url('#clipping-rect1')" />
		<line x1="296.99" y1="14.88" x2="296.99" y2="12.76" stroke="#7f7f7f" stroke-width="1.00" clip-path="url('#clipping-rect1')" />
		<line x1="302.86" y1="14.88" x2="302.86" y2="12.76" stroke="#7f7f7f" stroke-width="1.00" clip-path="url('#clipping-rect1')" />
		<line x1="308.73" y1="14.88" x2="308.73" y2="12.76" stroke="#7f7f7f" stroke-width="1.00" clip-path="url('#clipping-rect1')" />
		<line x1="314.60" y1="14.88" x2="314.60" y2="11.71" stroke="#7f7f7f" stroke-width="1.00" clip-path="url('#clipping-rect1')" />
		<line x1="320.47" y1="14.88" x2="320.47" y2="12.76" stroke="#7f7f7f" stroke-width="1.00" clip-path="url('#clipping-rect1')" />
		<line x1="326.34" y1="14.88" x2="326.34" y2="12.76" stroke="#7f7f7f" stroke-width="1.00" clip-path="url('#clipping-rect1')" />
		<line x1="332.21" y1="14.88" x2="332.21" y2="12.76" stroke="#7f7f7f" stroke-width="1.00" clip-path="url('#clipping-rect1')" />
		<line x1="338.08" y1="14.88" x2="338.08" y2="12.76" stroke="#7f7f7f" stroke-width="1.00" clip-path="url('#clipping-rect1')" />
		<line x1="343.94" y1="14.88" x2="343.94" y2="11.71" stroke="#7f7f7f" stroke-width="1.00" clip-path="url('#clipping-rect1')" />
		<line x1="349.81" y1="14.88" x2="349.81" y2="12.76" stroke="#7f7f7f" stroke-width="1.00" clip-path="url('#clipping-rect1')" />
		<line x1="355.68" y1="14.88" x2="355.68" y2="12.76" stroke="#7f7f7f" stroke-width="1.00" clip-path="url('#clipping-rect1')" />
		<line x1="361.55" y1="14.88" x2="361.55" y2="12.76" stroke="#7f7f7f" stroke-width="1.00" clip-path="url('#clipping-rect1')" />
		<line x1="367.42" y1="14.88" x2="367.42" y2="12.76" stroke="#7f7f7f" stroke-width="1.00" clip-path="url('#clipping-rect1')" />
		<line x1="373.29" y1="14.88" x2="373.29" y2="11.71" stroke="#7f7f7f" stroke-width="1.00" clip-path="url('#clipping-rect1')" />
		<line x1="379.16" y1="14.88" x2="379.16" y2="12.76" stroke="#7f7f7f" stroke-width="1.00" clip-path="url('#clipping-rect1')" />
		<line x1="385.03" y1="14.88" x2="385.03" y2="12.76" stroke="#7f7f7f" stroke-width="1.00" clip-path="url('#clipping-rect1')" />
		<line x1="390.90" y1="14.88" x2="390.90" y2="12.76" stroke="#7f7f7f" stroke-width="1.00" clip-path="url('#clipping-rect1')" />
		<line x1="396.77" y1="14.88" x2="396.77" y2="12.76" stroke="#7f7f7f" stroke-width="1.00" clip-path="url('#clipping-rect1')" />
		<line x1="402.64" y1="14.88" x2="402.64" y2="11.71" stroke="#7f7f7f" stroke-width="1.00" clip-path="url('#clipping-rect1')" />
		<line x1="408.50" y1="14.88" x2="408.50" y2="12.76" stroke="#7f7f7f" stroke-width="1.00" clip-path="url('#clipping-rect1')" />
		<line x1="414.37" y1="14.88" x2="414.37" y2="12.76" stroke="#7f7f7f" stroke-width="1.00" clip-path="url('#clipping-rect1')" />
		<line x1="420.24" y1="14.88" x2="420.24" y2="12.76" stroke="#7f7f7f" stroke-width="1.00" clip-path="url('#clipping-rect1')" />
		<line x1="426.11" y1="14.88" x2="426.11" y2="12.76" stroke="#7f7f7f" stroke-width="1.00" clip-path="url('#clipping-rect1')" />
		<line x1="431.98" y1="14.88" x2="431.98" y2="11.71" stroke="#7f7f7f" stroke-width="1.00" clip-path="url('#clipping-rect1')" />
		<line x1="437.85" y1="14.88" x2="437.85" y2="12.76" stroke="#7f7f7f" stroke-width="1.00" clip-path="url('#clipping-rect1')" />
		<line x1="443.72" y1="14.88" x2="443.72" y2="12.76" stroke="#7f7f7f" stroke-width="1.00" clip-path="url('#clipping-rect1')" />
		<line x1="449.59" y1="14.88" x2="449.59" y2="12.76" stroke="#7f7f7f" stroke-width="1.00" clip-path="url('#clipping-rect1')" />
		<line x1="455.46" y1="14.88" x2="455.46" y2="12.76" stroke="#7f7f7f" stroke-width="1.00" clip-path="url('#clipping-rect1')" />
		<line x1="461.33" y1="14.88" x2="461.33" y2="11.71" stroke="#7f7f7f" stroke-width="1.00" clip-path="url('#clipping-rect1')" />
		<line x1="467.20" y1="14.88" x2="467.20" y2="12.76" stroke="#7f7f7f" stroke-width="1.00" clip-path="url('#clipping-rect1')" />
		<line x1="473.07" y1="14.88" x2="473.07" y2="12.76" stroke="#7f7f7f" stroke-width="1.00" clip-path="url('#clipping-rect1')" />
		<line x1="478.93" y1="14.88" x2="478.93" y2="12.76" stroke="#7f7f7f" stroke-width="1.00" clip-path="url('#clipping-rect1')" />
		<line x1="484.80" y1="14.88" x2="484.80" y2="12.76" stroke="#7f7f7f" stroke-width="1.00" clip-path="url('#clipping-rect1')" />
		<line x1="490.67" y1="14.88" x2="490.67" y2="11.71" stroke="#7f7f7f" stroke-width="1.00" clip-path="url('#clipping-rect1')" />
		<line x1="496.54" y1="14.88" x2="496.54" y2="12.76" stroke="#7f7f7f" stroke-width="1.00" clip-path="url('#clipping-rect1')" />
		<line x1="502.41" y1="14.88" x2="502.41" y2="12.76" stroke="#7f7f7f" stroke-width="1.00" clip-path="url('#clipping-rect1')" />
		<line x1="508.28" y1="14.88" x2="508.28" y2="12.76" stroke="#7f7f7f" stroke-width="1.00" clip-path="url('#clipping-rect1')" />
		<line x1="514.15" y1="14.88" x2="514.15" y2="12.76" stroke="#7f7f7f" stroke-width="1.00" clip-path="url('#clipping-rect1')" />
		<line x1="520.02" y1="14.88" x2="520.02" y2="11.71" stroke="#7f7f7f" stroke-width="1.00" clip-path="url('#clipping-rect1')" />
		<line x1="525.89" y1="14.88" x2="525.89" y2="12.76" stroke="#7f7f7f" stroke-width="1.00" clip-path="url('#clipping-rect1')" />
		<line x1="531.76" y1="14.88" x2="531.76" y2="12.76" stroke="#7f7f7f" stroke-width="1.00" clip-path="url('#clipping-rect1')" />
		<line x1="537.63" y1="14.88" x2="537.63" y2="12.76" stroke="#7f7f7f" stroke-width="1.00" clip-path="url('#clipping-rect1')" />
		<line x1="543.49" y1="14.88" x2="543.49" y2="12.76" stroke="#7f7f7f" stroke-width="1.00" clip-path="url('#clipping-rect1')" />
		<line x1="549.36" y1="14.88" x2="549.36" y2="11.71" stroke="#7f7f7f" stroke-width="1.00" clip-path="url('#clipping-rect1')" />
		<line x1="555.23" y1="14.88" x2="555.23" y2="12.76" stroke="#7f7f7f" stroke-width="1.00" clip-path="url('#clipping-rect1')" />
		<line x1="561.10" y1="14.88" x2="561.10" y2="12.76" stroke="#7f7f7f" stroke-width="1.00" clip-path="url('#clipping-rect1')" />
		<line x1="566.97" y1="14.88" x2="566.97" y2="12.76" stroke="#7f7f7f" stroke-width="1.00" clip-path="url('#clipping-rect1')" />
		<line x1="572.84" y1="14.88" x2="572.84" y2="12.76" stroke="#7f7f7f" stroke-width="1.00" clip-path="url('#clipping-rect1')" />
		<line x1="578.71" y1="14.88" x2="578.71" y2="11.71" stroke="#7f7f7f" stroke-width="1.00" clip-path="url('#clipping-rect1')" />
		<line x1="584.58" y1="14.88" x2="584.58" y2="12.76" stroke="#7f7f7f" stroke-width="1.00" clip-path="url('#clipping-rect1')" />
		<line x1="590.45" y1="14.88" x2="590.45" y2="12.76" stroke="#7f7f7f" stroke-width="1.00" clip-path="url('#clipping-rect1')" />
		<line x1="596.32" y1="14.88" x2="596.32" y2="12.76" stroke="#7f7f7f" stroke-width="1.00" clip-path="url('#clipping-rect1')" />
		<line x1="602.19" y1="14.88" x2="602.19" y2="12.76" stroke="#7f7f7f" stroke-width="1.00" clip-path="url('#clipping-rect1')" />
		<line x1="608.05" y1="14.88" x2="608.05" y2="11.71" stroke="#7f7f7f" stroke-width="1.00" clip-path="url('#clipping-rect1')" />
		<line x1="613.92" y1="14.88" x2="613.92" y2="12.76" stroke="#7f7f7f" stroke-width="1.00" clip-path="url('#clipping-rect1')" />
		<line x1="619.79" y1="14.88" x2="619.79" y2="12.76" stroke="#7f7f7f" stroke-width="1.00" clip-path="url('#clipping-rect1')" />
		<line x1="625.66" y1="14.88" x2="625.66" y2="12.76" stroke="#7f7f7f" stroke-width="1.00" clip-path="url('#clipping-rect1')" />
		<line x1="631.53" y1="14.88" x2="631.53" y2="12.76" stroke="#7f7f7f" stroke-width="1.00" clip-path="url('#clipping-rect1')" />
		<line x1="637.40" y1="14.88" x2="637.40" y2="11.71" stroke="#7f7f7f" stroke-width="1.00" clip-path="url('#clipping-rect1')" />
		<line x1="643.27" y1="14.88" x2="643.27" y2="12.76" stroke="#7f7f7f" stroke-width="1.00" clip-path="url('#clipping-rect1')" />
		<line x1="649.14" y1="14.88" x2="649.14" y2="12.76" stroke="#7f7f7f" stroke-width="1.00" clip-path="url('#clipping-rect1')" />
		<line x1="655.01" y1="14.88" x2="655.01" y2="12.76" stroke="#7f7f7f" stroke-width="1.00" clip-path="url('#clipping-rect1')" />
		<line x1="660.88" y1="14.88" x2="660.88" y2="12.76" stroke="#7f7f7f" stroke-width="1.00" clip-path="url('#clipping-rect1')" />
		<line x1="666.75" y1="14.88" x2="666.75" y2="11.71" stroke="#7f7f7f" stroke-width="1.00" clip-path="url('#clipping-rect1')" />
		<line x1="672.62" y1="14.88" x2="672.62" y2="12.76" stroke="#7f7f7f" stroke-width="1.00" clip-path="url('#clipping-rect1')" />
		<line x1="678.48" y1="14.88" x2="678.48" y2="12.76" stroke="#7f7f7f" stroke-width="1.00" clip-path="url('#clipping-rect1')" />
		<line x1="684.35" y1="14.88" x2="684.35" y2="12.76" stroke="#7f7f7f" stroke-width="1.00" clip-path="url('#clipping-rect1')" />
		<line x1="690.22" y1="14.88" x2="690.22" y2="12.76" stroke="#7f7f7f" stroke-width="1.00" clip-path="url('#clipping-rect1')" />
		<line x1="696.09" y1="14.88" x2="696.09" y2="11.71" stroke="#7f7f7f" stroke-width="1.00" clip-path="url('#clipping-rect1')" />
		<line x1="701.96" y1="14.88" x2="701.96" y2="12.76" stroke="#7f7f7f" stroke-width="1.00" clip-path="url('#clipping-rect1')" />
		<line x1="707.83" y1="14.88" x2="707.83" y2="12.76" stroke="#7f7f7f" stroke-width="1.00" clip-path="url('#clipping-rect1')" />
		<line x1="713.70" y1="14.88" x2="713.70" y2="12.76" stroke="#7f7f7f" stroke-width="1.00" clip-path="url('#clipping-rect1')" />
		<line x1="719.57" y1="14.88" x2="719.57" y2="12.76" stroke="#7f7f7f" stroke-width="1.00" clip-path="url('#clipping-rect1')" />
		<line x1="725.44" y1="14.88" x2="725.44" y2="11.71" stroke="#7f7f7f" stroke-width="1.00" clip-path="url('#clipping-rect1')" />
		<line x1="731.31" y1="14.88" x2="731.31" y2="12.76" stroke="#7f7f7f" stroke-width="1.00" clip-path="url('#clipping-rect1')" />
		<line x1="737.18" y1="14.88" x2="737.18" y2="12.76" stroke="#7f7f7f" stroke-width="1.00" clip-path="url('#clipping-rect1')" />
		<line x1="743.04" y1="14.88" x2="743.04" y2="12.76" stroke="#7f7f7f" stroke-width="1.00" clip-path="url('#clipping-rect1')" />
		<line x1="748.91" y1="14.88" x2="748.91" y2="12.76" stroke="#7f7f7f" stroke-width="1.00" clip-path="url('#clipping-rect1')" />
		<line x1="754.78" y1="14.88" x2="754.78" y2="11.71" stroke="#7f7f7f" stroke-width="1.00" clip-path="url('#clipping-rect1')" />
		<line x1="760.65" y1="14.88" x2="760.65" y2="12.76" stroke="#7f7f7f" stroke-width="1.00" clip-path="url('#clipping-rect1')" />
		<line x1="766.52" y1="14.88" x2="766.52" y2="12.76" stroke="#7f7f7f" stroke-width="1.00" clip-path="url('#clipping-rect1')" />
		<line x1="772.39" y1="14.88" x2="772.39" y2="12.76" stroke="#7f7f7f" stroke-width="1.00" clip-path="url('#clipping-rect1')" />
		<line x1="778.26" y1="14.88" x2="778.26" y2="12.76" stroke="#7f7f7f" stroke-width="1.00" clip-path="url('#clipping-rect1')" />
		<line x1="784.13" y1="14.88" x2="784.13" y2="11.71" stroke="#7f7f7f" stroke-width="1.00" clip-path="url('#clipping-rect1')" />
		<line x1="790.00" y1="14.88" x2="790.00" y2="12.76" stroke="#7f7f7f" stroke-width="1.00" clip-path="url('#clipping-rect1')" />
		<line x1="795.87" y1="14.88" x2="795.87" y2="12.76" stroke="#7f7f7f" stroke-width="1.00" clip-path="url('#clipping-rect1')" />
		<line x1="801.74" y1="14.88" x2="801.74" y2="12.76" stroke="#7f7f7f" stroke-width="1.00" clip-path="url('#clipping-rect1')" />
		<line x1="807.60" y1="14.88" x2="807.60" y2="12.76" stroke="#7f7f7f" stroke-width="1.00" clip-path="url('#clipping-rect1')" />
		<line x1="813.47" y1="14.88" x2="813.47" y2="11.71" stroke="#7f7f7f" stroke-width="1.00" clip-path="url('#clipping-rect1')" />
		<line x1="819.34" y1="14.88" x2="819.34" y2="12.76" stroke="#7f7f7f" stroke-width="1.00" clip-path="url('#clipping-rect1')" />
		<line x1="825.21" y1="14.88" x2="825.21" y2="12.76" stroke="#7f7f7f" stroke-width="1.00" clip-path="url('#clipping-rect1')" />
		<line x1="831.08" y1="14.88" x2="831.08" y2="12.76" stroke="#7f7f7f" stroke-width="1.00" clip-path="url('#clipping-rect1')" />
		<line x1="836.95" y1="14.88" x2="836.95" y2="12.76" stroke="#7f7f7f" stroke-width="1.00" clip-path="url('#clipping-rect1')" />
		<line x1="842.82" y1="14.88" x2="842.82" y2="11.71" stroke="#7f7f7f" stroke-width="1.00" clip-path="url('#clipping-rect1')" />
		<line x1="848.69" y1="14.88" x2="848.69" y2="12.76" stroke="#7f7f7f" stroke-width="1.00" clip-path="url('#clipping-rect1')" />
		<line x1="854.56" y1="14.88" x2="854.56" y2="12.76" stroke="#7f7f7f" stroke-width="1.00" clip-path="url('#clipping-rect1')" />
		<line x1="860.43" y1="14.88" x2="860.43" y2="12.76" stroke="#7f7f7f" stroke-width="1.00" clip-path="url('#clipping-rect1')" />
		<line x1="866.30" y1="14.88" x2="866.30" y2="12.76" stroke="#7f7f7f" stroke-width="1.00" clip-path="url('#clipping-rect1')" />
		<line x1="872.16" y1="14.88" x2="872.16" y2="11.71" stroke="#7f7f7f" stroke-width="1.00" clip-path="url('#clipping-rect1')" />
		<line x1="878.03" y1="14.88" x2="878.03" y2="12.76" stroke="#7f7f7f" stroke-width="1.00" clip-path="url('#clipping-rect1')" />
		<line x1="883.90" y1="14.88" x2="883.90" y2="12.76" stroke="#7f7f7f" stroke-width="1.00" clip-path="url('#clipping-rect1')" />
		<line x1="889.77" y1="14.88" x2="889.77" y2="12.76" stroke="#7f7f7f" stroke-width="1.00" clip-path="url('#clipping-rect1')" />
		<line x1="895.64" y1="14.88" x2="895.64" y2="12.76" stroke="#7f7f7f" stroke-width="1.00" clip-path="url('#clipping-rect1')" />
		<line x1="901.51" y1="14.88" x2="901.51" y2="11.71" stroke="#7f7f7f" stroke-width="1.00" clip-path="url('#clipping-rect1')" />
		<line x1="907.38" y1="14.88" x2="907.38" y2="12.76" stroke="#7f7f7f" stroke-width="1.00" clip-path="url('#clipping-rect1')" />
		<line x1="913.25" y1="14.88" x2="913.25" y2="12.76" stroke="#7f7f7f" stroke-width="1.00" clip-path="url('#clipping-rect1')" />
		<line x1="919.12" y1="14.88" x2="919.12" y2="12.76" stroke="#7f7f7f" stroke-width="1.00" clip-path="url('#clipping-rect1')" />
		<line x1="924.99" y1="14.88" x2="924.99" y2="12.76" stroke="#7f7f7f" stroke-width="1.00" clip-path="url('#clipping-rect1')" />
		<line x1="930.86" y1="14.88" x2="930.86" y2="11.71" stroke="#7f7f7f" stroke-width="1.00" clip-path="url('#clipping-rect1')" />
		<line x1="936.73" y1="14.88" x2="936.73" y2="12.76" stroke="#7f7f7f" stroke-width="1.00" clip-path="url('#clipping-rect1')" />
		<line x1="942.59" y1="14.88" x2="942.59" y2="12.76" stroke="#7f7f7f" stroke-width="1.00" clip-path="url('#clipping-rect1')" />
		<line x1="948.46" y1="14.88" x2="948.46" y2="12.76" stroke="#7f7f7f" stroke-width="1.00" clip-path="url('#clipping-rect1')" />
		<line x1="954.33" y1="14.88" x2="954.33" y2="12.76" stroke="#7f7f7f" stroke-width="1.00" clip-path="url('#clipping-rect1')" />
		<line x1="960.20" y1="14.88" x2="960.20" y2="11.71" stroke="#7f7f7f" stroke-width="1.00" clip-path="url('#clipping-rect1')" />
		<line x1="966.07" y1="14.88" x2="966.07" y2="12.76" stroke="#7f7f7f" stroke-width="1.00" clip-path="url('#clipping-rect1')" />
		<line x1="971.94" y1="14.88" x2="971.94" y2="12.76" stroke="#7f7f7f" stroke-width="1.00" clip-path="url('#clipping-rect1')" />
		<line x1="977.81" y1="14.88" x2="977.81" y2="12.76" stroke="#7f7f7f" stroke-width="1.00" clip-path="url('#clipping-rect1')" />
		<line x1="983.68" y1="14.88" x2="983.68" y2="12.76" stroke="#7f7f7f" stroke-width="1.00" clip-path="url('#clipping-rect1')" />
		<line x1="989.55" y1="14.88" x2="989.55" y2="11.71" stroke="#7f7f7f" stroke-width="1.00" clip-path="url('#clipping-rect1')" />
		<line x1="995.42" y1="14.88" x2="995.42" y2="12.76" stroke="#7f7f7f" stroke-width="1.00" clip-path="url('#clipping-rect1')" />
		<line x1="1001.29" y1="14.88" x2="1001.29" y2="12.76" stroke="#7f7f7f" stroke-width="1.00" clip-path="url('#clipping-rect1')" />
		<line x1="1007.15" y1="14.88" x2="1007.15" y2="12.76" stroke="#7f7f7f" stroke-width="1.00" clip-path="url('#clipping-rect1')" />
		<line x1="1013.02" y1="14.88" x2="1013.02" y2="12.76" stroke="#7f7f7f" stroke-width="1.00" clip-path="url('#clipping-rect1')" />
		<line x1="989.55" y1="17.00" x2="989.55" y2="1.12" stroke="#7f7f7f" stroke-width="1.00" clip-path="url('#clipping-rect1')" />
		<text x="844.82" y="9.59" font-family="Helvetica" font-size="10" fill="#333333" clip-path="url('#clipping-rect1')" >13,525 K</text>
		<line x1="842.82" y1="17.00" x2="842.82" y2="1.12" stroke="#7f7f7f" stroke-width="1.00" clip-path="url('#clipping-rect1')" />
		<text x="698.09" y="9.59" font-family="Helvetica" font-size="10" fill="#333333" clip-path="url('#clipping-rect1')" >13,520 K</text>
		<line x1="696.09" y1="17.00" x2="696.09" y2="1.12" stroke="#7f7f7f" stroke-width="1.00" clip-path="url('#clipping-rect1')" />
		<text x="551.36" y="9.59" font-family="Helvetica" font-size="10" fill="#333333" clip-path="url('#clipping-rect1')" >13,515 K</text>
		<line x1="549.36" y1="17.00" x2="549.36" y2="1.12" stroke="#7f7f7f" stroke-width="1.00" clip-path="url('#clipping-rect1')" />
		<text x="404.64" y="9.59" font-family="Helvetica" font-size="10" fill="#333333" clip-path="url('#clipping-rect1')" >13,510 K</text>
		<line x1="402.64" y1="17.00" x2="402.64" y2="1.12" stroke="#7f7f7f" stroke-width="1.00" clip-path="url('#clipping-rect1')" />
		<text x="257.91" y="9.59" font-family="Helvetica" font-size="10" fill="#333333" clip-path="url('#clipping-rect1')" >13,505 K</text>
		<line x1="255.91" y1="17.00" x2="255.91" y2="1.12" stroke="#7f7f7f" stroke-width="1.00" clip-path="url('#clipping-rect1')" />
		<text x="111.18" y="9.59" font-family="Helvetica" font-size="10" fill="#333333" clip-path="url('#clipping-rect1')" >13,500 K</text>
		<line x1="109.18" y1="17.00" x2="109.18" y2="1.12" stroke="#7f7f7f" stroke-width="1.00" clip-path="url('#clipping-rect1')" />
		<line x1="109.11" y1="161.00" x2="109.11" y2="17.00" stroke="#ebebeb" stroke-width="1.00" />
		<line x1="255.25" y1="161.00" x2="255.25" y2="17.00" stroke="#ebebeb" stroke-width="1.00" />
		<line x1="402.40" y1="161.00" x2="402.40" y2="17.00" stroke="#ebebeb" stroke-width="1.00" />
		<line x1="549.54" y1="161.00" x2="549.54" y2="17.00" stroke="#ebebeb" stroke-width="1.00" />
		<line x1="696.69" y1="161.00" x2="696.69" y2="17.00" stroke="#ebebeb" stroke-width="1.00" />
		<line x1="842.83" y1="161.00" x2="842.83" y2="17.00" stroke="#ebebeb" stroke-width="1.00" />
		<line x1="989.97" y1="161.00" x2="989.97" y2="17.00" stroke="#ebebeb" stroke-width="1.00" />
		<polygon fill="url('#gradient1')" shape-rendering="crispEdges" points="1017.00,37.50 1017.00,33.00 0.00,33.00 0.00,37.50 0.00,42.00 1017.00,42.00 " />
		<line x1="0.00" y1="42.00" x2="0.00" y2="33.00" stroke="#6c6c6c" stroke-width="1.00" stroke-linejoin="round" />
		<line x1="0.00" y1="33.00" x2="1017.00" y2="33.00" stroke="#6c6c6c" stroke-width="1.00" stroke-linejoin="round" />
		<line x1="1017.00" y1="33.00" x2="1017.00" y2="42.00" stroke="#6c6c6c" stroke-width="1.00" stroke-linejoin="round" />
		<line x1="0.00" y1="42.00" x2="1017.00" y2="42.00" stroke="#6c6c6c" stroke-width="1.00" stroke-linejoin="round" />
		<polygon fill="url('#gradient2')" shape-rendering="crispEdges" points="0.00,31.00 1017.03,31.00 1017.03,17.00 0.00,17.00 " clip-path="url('#clipping-rect2')" />
		<text x="0.00" y="27.00" font-family="Helvetica" font-size="12" fill="#333333" >Sequence</text>
		<line x1="38.83" y1="63.00" x2="38.83" y2="91.00" stroke="#009900" stroke-opacity="0.10" stroke-width="1.00" stroke-linejoin="round" />
		<line x1="38.83" y1="91.00" x2="253.05" y2="91.00" stroke="#009900" stroke-opacity="0.10" stroke-width="1.00" stroke-linejoin="round" />
		<line x1="253.05" y1="91.00" x2="253.05" y2="63.00" stroke="#009900" stroke-opacity="0.10" stroke-width="1.00" stroke-linejoin="round" />
		<line x1="38.83" y1="63.00" x2="253.05" y2="63.00" stroke="#009900" stroke-opacity="0.10" stroke-width="1.00" stroke-linejoin="round" />
		<text x="110.95" y="72.00" font-family="Helvetica" font-size="10" fill="#124d94" >TMOL_7.1463.1</text>
		<polygon fill="#a5d1a5" shape-rendering="crispEdges" points="160.02,78.00 160.02,89.00 74.42,89.00 74.42,78.00 " />
		<polygon fill="#000000" shape-rendering="crispEdges" points="121.62,83.50 112.82,79.10 115.02,83.50 112.82,87.90 " />
		<polygon fill="#1e8c1e" shape-rendering="crispEdges" points="162.99,78.00 162.99,89.00 160.02,89.00 160.02,78.00 " />
		<polygon fill="#a5d1a5" shape-rendering="crispEdges" points="164.60,78.00 164.60,89.00 162.99,89.00 162.99,78.00 " />
		<polygon fill="#1e8c1e" shape-rendering="crispEdges" points="175.28,78.00 175.28,89.00 164.60,89.00 164.60,78.00 " />
		<polygon fill="#a5d1a5" shape-rendering="crispEdges" points="180.24,78.00 180.24,89.00 175.28,89.00 175.28,78.00 " />
		<polygon fill="#ffffff" shape-rendering="crispEdges" points="74.42,89.00 74.42,78.00 41.83,78.00 41.83,89.00 " />
		<text x="41.83" y="87.00" font-family="Helvetica" font-size="10" fill="#124d94" >mRNA</text>
		<polygon fill="#ffffff" shape-rendering="crispEdges" points="251.05,89.00 251.05,78.00 184.24,78.00 184.24,89.00 " />
		<text x="184.24" y="87.00" font-family="Helvetica" font-size="10" fill="#124d94" >CAH1377308.1</text>
		<line x1="286.12" y1="96.00" x2="286.12" y2="124.00" stroke="#009900" stroke-opacity="0.10" stroke-width="1.00" stroke-linejoin="round" />
		<line x1="286.12" y1="124.00" x2="406.32" y2="124.00" stroke="#009900" stroke-opacity="0.10" stroke-width="1.00" stroke-linejoin="round" />
		<line x1="406.32" y1="124.00" x2="406.32" y2="96.00" stroke="#009900" stroke-opacity="0.10" stroke-width="1.00" stroke-linejoin="round" />
		<line x1="286.12" y1="96.00" x2="406.32" y2="96.00" stroke="#009900" stroke-opacity="0.10" stroke-width="1.00" stroke-linejoin="round" />
		<text x="311.23" y="105.00" font-family="Helvetica" font-size="10" fill="#124d94" >TMOL_7.1464.1</text>
		<polygon fill="#1e8c1e" shape-rendering="crispEdges" points="332.63,111.00 332.63,122.00 321.72,122.00 321.72,111.00 " />
		<polygon fill="#a5d1a5" shape-rendering="crispEdges" points="333.57,111.00 333.57,122.00 332.57,122.00 332.57,111.00 " />
		<polygon fill="#ffffff" shape-rendering="crispEdges" points="321.72,122.00 321.72,111.00 289.12,111.00 289.12,122.00 " />
		<text x="289.12" y="120.00" font-family="Helvetica" font-size="10" fill="#124d94" >mRNA</text>
		<polygon fill="#ffffff" shape-rendering="crispEdges" points="404.32,122.00 404.32,111.00 337.51,111.00 337.51,122.00 " />
		<text x="337.51" y="120.00" font-family="Helvetica" font-size="10" fill="#124d94" >CAH1377309.1</text>
		<line x1="366.50" y1="63.00" x2="366.50" y2="91.00" stroke="#009900" stroke-opacity="0.10" stroke-width="1.00" stroke-linejoin="round" />
		<line x1="366.50" y1="91.00" x2="495.36" y2="91.00" stroke="#009900" stroke-opacity="0.10" stroke-width="1.00" stroke-linejoin="round" />
		<line x1="495.36" y1="91.00" x2="495.36" y2="63.00" stroke="#009900" stroke-opacity="0.10" stroke-width="1.00" stroke-linejoin="round" />
		<line x1="366.50" y1="63.00" x2="495.36" y2="63.00" stroke="#009900" stroke-opacity="0.10" stroke-width="1.00" stroke-linejoin="round" />
		<text x="395.94" y="72.00" font-family="Helvetica" font-size="10" fill="#124d94" >TMOL_7.1465.1</text>
		<polygon fill="#a5d1a5" shape-rendering="crispEdges" points="406.32,78.00 406.32,89.00 402.09,89.00 402.09,78.00 " />
		<polygon fill="#1e8c1e" shape-rendering="crispEdges" points="409.28,78.00 409.28,89.00 406.32,89.00 406.32,78.00 " />
		<polygon fill="#a5d1a5" shape-rendering="crispEdges" points="410.90,78.00 410.90,89.00 409.28,89.00 409.28,78.00 " />
		<polygon fill="#1e8c1e" shape-rendering="crispEdges" points="421.58,78.00 421.58,89.00 410.90,89.00 410.90,78.00 " />
		<polygon fill="#a5d1a5" shape-rendering="crispEdges" points="422.56,78.00 422.56,89.00 421.56,89.00 421.56,78.00 " />
		<polygon fill="#ffffff" shape-rendering="crispEdges" points="402.09,89.00 402.09,78.00 369.50,78.00 369.50,89.00 " />
		<text x="369.50" y="87.00" font-family="Helvetica" font-size="10" fill="#124d94" >mRNA</text>
		<polygon fill="#ffffff" shape-rendering="crispEdges" points="493.36,89.00 493.36,78.00 426.55,78.00 426.55,89.00 " />
		<text x="426.55" y="87.00" font-family="Helvetica" font-size="10" fill="#124d94" >CAH1377310.1</text>
		<line x1="512.79" y1="63.00" x2="512.79" y2="91.00" stroke="#009900" stroke-opacity="0.10" stroke-width="1.00" stroke-linejoin="round" />
		<line x1="512.79" y1="91.00" x2="639.74" y2="91.00" stroke="#009900" stroke-opacity="0.10" stroke-width="1.00" stroke-linejoin="round" />
		<line x1="639.74" y1="91.00" x2="639.74" y2="63.00" stroke="#009900" stroke-opacity="0.10" stroke-width="1.00" stroke-linejoin="round" />
		<line x1="512.79" y1="63.00" x2="639.74" y2="63.00" stroke="#009900" stroke-opacity="0.10" stroke-width="1.00" stroke-linejoin="round" />
		<text x="541.27" y="72.00" font-family="Helvetica" font-size="10" fill="#124d94" >TMOL_7.1466.1</text>
		<polygon fill="#1e8c1e" shape-rendering="crispEdges" points="551.96,78.00 551.96,89.00 548.38,89.00 548.38,78.00 " />
		<polygon fill="#a5d1a5" shape-rendering="crispEdges" points="553.55,78.00 553.55,89.00 551.96,89.00 551.96,78.00 " />
		<polygon fill="#1e8c1e" shape-rendering="crispEdges" points="564.23,78.00 564.23,89.00 553.55,89.00 553.55,78.00 " />
		<polygon fill="#a5d1a5" shape-rendering="crispEdges" points="566.93,78.00 566.93,89.00 564.23,89.00 564.23,78.00 " />
		<polygon fill="#ffffff" shape-rendering="crispEdges" points="548.38,89.00 548.38,78.00 515.79,78.00 515.79,89.00 " />
		<text x="515.79" y="87.00" font-family="Helvetica" font-size="10" fill="#124d94" >mRNA</text>
		<polygon fill="#ffffff" shape-rendering="crispEdges" points="637.74,89.00 637.74,78.00 570.93,78.00 570.93,89.00 " />
		<text x="570.93" y="87.00" font-family="Helvetica" font-size="10" fill="#124d94" >CAH1377311.1</text>
		<line x1="687.95" y1="129.00" x2="687.95" y2="157.00" stroke="#009900" stroke-opacity="0.10" stroke-width="1.00" stroke-linejoin="round" />
		<line x1="687.95" y1="157.00" x2="813.05" y2="157.00" stroke="#009900" stroke-opacity="0.10" stroke-width="1.00" stroke-linejoin="round" />
		<line x1="813.05" y1="157.00" x2="813.05" y2="129.00" stroke="#009900" stroke-opacity="0.10" stroke-width="1.00" stroke-linejoin="round" />
		<line x1="687.95" y1="129.00" x2="813.05" y2="129.00" stroke="#009900" stroke-opacity="0.10" stroke-width="1.00" stroke-linejoin="round" />
		<text x="715.51" y="138.00" font-family="Helvetica" font-size="10" fill="#124d94" >TMOL_7.1468.1</text>
		<polygon fill="#a5d1a5" shape-rendering="crispEdges" points="724.44,144.00 724.44,155.00 723.44,155.00 723.44,144.00 " />
		<polygon fill="#1e8c1e" shape-rendering="crispEdges" points="727.92,144.00 727.92,155.00 724.34,155.00 724.34,144.00 " />
		<polygon fill="#a5d1a5" shape-rendering="crispEdges" points="729.56,144.00 729.56,155.00 727.92,155.00 727.92,144.00 " />
		<polygon fill="#1e8c1e" shape-rendering="crispEdges" points="740.24,144.00 740.24,155.00 729.56,155.00 729.56,144.00 " />
		<polygon fill="#ffffff" shape-rendering="crispEdges" points="723.54,155.00 723.54,144.00 690.95,144.00 690.95,155.00 " />
		<text x="690.95" y="153.00" font-family="Helvetica" font-size="10" fill="#124d94" >mRNA</text>
		<polygon fill="#ffffff" shape-rendering="crispEdges" points="811.05,155.00 811.05,144.00 744.24,144.00 744.24,155.00 " />
		<text x="744.24" y="153.00" font-family="Helvetica" font-size="10" fill="#124d94" >CAH1377312.1</text>
		<line x1="789.78" y1="96.00" x2="789.78" y2="124.00" stroke="#009900" stroke-opacity="0.10" stroke-width="1.00" stroke-linejoin="round" />
		<line x1="789.78" y1="124.00" x2="916.47" y2="124.00" stroke="#009900" stroke-opacity="0.10" stroke-width="1.00" stroke-linejoin="round" />
		<line x1="916.47" y1="124.00" x2="916.47" y2="96.00" stroke="#009900" stroke-opacity="0.10" stroke-width="1.00" stroke-linejoin="round" />
		<line x1="789.78" y1="96.00" x2="916.47" y2="96.00" stroke="#009900" stroke-opacity="0.10" stroke-width="1.00" stroke-linejoin="round" />
		<text x="818.13" y="105.00" font-family="Helvetica" font-size="10" fill="#124d94" >TMOL_7.1467.1</text>
		<polygon fill="#a5d1a5" shape-rendering="crispEdges" points="826.03,111.00 826.03,122.00 825.03,122.00 825.03,111.00 " />
		<polygon fill="#1e8c1e" shape-rendering="crispEdges" points="829.28,111.00 829.28,122.00 825.70,122.00 825.70,111.00 " />
		<polygon fill="#a5d1a5" shape-rendering="crispEdges" points="830.92,111.00 830.92,122.00 829.28,122.00 829.28,111.00 " />
		<polygon fill="#1e8c1e" shape-rendering="crispEdges" points="841.60,111.00 841.60,122.00 830.92,122.00 830.92,111.00 " />
		<polygon fill="#a5d1a5" shape-rendering="crispEdges" points="843.66,111.00 843.66,122.00 841.60,122.00 841.60,111.00 " />
		<polygon fill="#ffffff" shape-rendering="crispEdges" points="825.37,122.00 825.37,111.00 792.78,111.00 792.78,122.00 " />
		<text x="792.78" y="120.00" font-family="Helvetica" font-size="10" fill="#124d94" >mRNA</text>
		<polygon fill="#ffffff" shape-rendering="crispEdges" points="914.47,122.00 914.47,111.00 847.66,111.00 847.66,122.00 " />
		<text x="847.66" y="120.00" font-family="Helvetica" font-size="10" fill="#124d94" >CAH1377313.1</text>
		<line x1="776.98" y1="63.00" x2="776.98" y2="91.00" stroke="#009900" stroke-opacity="0.10" stroke-width="1.00" stroke-linejoin="round" />
		<line x1="776.98" y1="91.00" x2="990.06" y2="91.00" stroke="#009900" stroke-opacity="0.10" stroke-width="1.00" stroke-linejoin="round" />
		<line x1="990.06" y1="91.00" x2="990.06" y2="63.00" stroke="#009900" stroke-opacity="0.10" stroke-width="1.00" stroke-linejoin="round" />
		<line x1="776.98" y1="63.00" x2="990.06" y2="63.00" stroke="#009900" stroke-opacity="0.10" stroke-width="1.00" stroke-linejoin="round" />
		<text x="848.53" y="72.00" font-family="Helvetica" font-size="10" fill="#124d94" >TMOL_7.1469.1</text>
		<polygon fill="#a5d1a5" shape-rendering="crispEdges" points="890.32,78.00 890.32,89.00 849.79,89.00 849.79,78.00 " />
		<polygon fill="#000000" shape-rendering="crispEdges" points="865.65,83.50 874.45,79.10 872.25,83.50 874.45,87.90 " />
		<polygon fill="#1e8c1e" shape-rendering="crispEdges" points="905.43,78.00 905.43,89.00 890.32,89.00 890.32,78.00 " />
		<polygon fill="#ffffff" shape-rendering="crispEdges" points="893.47,83.50 902.27,79.10 900.07,83.50 902.27,87.90 " />
		<polygon fill="#a5d1a5" shape-rendering="crispEdges" points="906.95,78.00 906.95,89.00 905.43,89.00 905.43,78.00 " />
		<polygon fill="#1e8c1e" shape-rendering="crispEdges" points="910.62,78.00 910.62,89.00 906.95,89.00 906.95,78.00 " />
		<polygon fill="#a5d1a5" shape-rendering="crispEdges" points="912.18,78.00 912.18,89.00 910.62,89.00 910.62,78.00 " />
		<polygon fill="#1e8c1e" shape-rendering="crispEdges" points="915.20,78.00 915.20,89.00 912.18,89.00 912.18,78.00 " />
		<polygon fill="#a5d1a5" shape-rendering="crispEdges" points="943.93,78.00 943.93,89.00 915.20,89.00 915.20,78.00 " />
		<polygon fill="#000000" shape-rendering="crispEdges" points="925.16,83.50 933.96,79.10 931.76,83.50 933.96,87.90 " />
		<polygon fill="#1e8c1e" shape-rendering="crispEdges" points="945.90,78.00 945.90,89.00 943.93,89.00 943.93,78.00 " />
		<polygon fill="#a5d1a5" shape-rendering="crispEdges" points="954.46,78.00 954.46,89.00 945.90,89.00 945.90,78.00 " />
		<polygon fill="#ffffff" shape-rendering="crispEdges" points="849.79,89.00 849.79,78.00 779.98,78.00 779.98,89.00 " />
		<text x="779.98" y="87.00" font-family="Helvetica" font-size="10" fill="#124d94" >CAH1377314.1</text>
		<polygon fill="#ffffff" shape-rendering="crispEdges" points="988.06,89.00 988.06,78.00 958.46,78.00 958.46,89.00 " />
		<text x="958.46" y="87.00" font-family="Helvetica" font-size="10" fill="#124d94" >mRNA</text>
		<polygon fill="url('#gradient2')" shape-rendering="crispEdges" points="0.00,58.00 1017.03,58.00 1017.03,44.00 0.00,44.00 " clip-path="url('#clipping-rect2')" />
		<text x="0.00" y="54.00" font-family="Helvetica" font-size="12" fill="#333333" >Genes, INSDC annotation provided by submitter</text>
	</g>
</svg>
